<?xml version="1.0"?>
<svg version="1.1" xmlns="http://www.w3.org/2000/svg" width="89.869140625px" height="11.19140625px"><path fill="#777" d="M-0.01611328125,8.19140625l3.02392578125-7.8740234375l1.12255859375,0l3.22265625,7.8740234375l-1.18701171875,0l-0.91845703125-2.384765625l-3.29248046875,0l-0.86474609375,2.384765625l-1.1064453125,0z M2.255859375,4.9580078125l2.66943359375,0l-0.82177734375-2.1806640625q-0.3759765625-0.99365234375-0.55859375-1.6328125q-0.150390625,0.75732421875-0.42431640625,1.50390625z M7.5302734375,3.2392578125l0-0.751953125l0.708984375,0l0-1.41259765625l0.96142578125-0.580078125l0,1.99267578125l0.97216796875,0l0,0.751953125l-0.97216796875,0l0,3.33544921875q0,0.41357421875,0.051025390625,0.53173828125t0.16650390625,0.18798828125t0.330322265625,0.06982421875q0.1611328125,0,0.42431640625-0.03759765625l0.1396484375,0.85400390625q-0.408203125,0.0859375-0.73046875,0.0859375q-0.5263671875,0-0.81640625-0.16650390625t-0.408203125-0.437744140625t-0.1181640625-1.141357421875l0-3.28173828125l-0.708984375,0z M11.1181640625,8.19140625l0-7.8740234375l0.966796875,0l0,2.8251953125q0.6767578125-0.7841796875,1.7080078125-0.7841796875q0.6337890625,0,1.10107421875,0.249755859375t0.668701171875,0.690185546875t0.201416015625,1.2783203125l0,3.61474609375l-0.966796875,0l0-3.61474609375q0-0.72509765625-0.314208984375-1.055419921875t-0.888916015625-0.330322265625q-0.4296875,0-0.808349609375,0.222900390625t-0.539794921875,0.604248046875t-0.1611328125,1.052734375l0,3.12060546875l-0.966796875,0z M17.2412109375,8.19140625l0-5.7041015625l0.966796875,0l0,5.7041015625l-0.966796875,0z M17.2412109375,1.42919921875l0-1.11181640625l0.966796875,0l0,1.11181640625l-0.966796875,0z M19.6796875,8.19140625l0-5.7041015625l0.8701171875,0l0,0.81103515625q0.62841796875-0.93994140625,1.8154296875-0.93994140625q0.515625,0,0.947998046875,0.185302734375t0.647216796875,0.486083984375t0.30078125,0.71435546875q0.0537109375,0.2685546875,0.0537109375,0.93994140625l0,3.50732421875l-0.966796875,0l0-3.4697265625q0-0.5908203125-0.11279296875-0.883544921875t-0.400146484375-0.46728515625t-0.674072265625-0.174560546875q-0.61767578125,0-1.066162109375,0.39208984375t-0.448486328125,1.48779296875l0,3.115234375l-0.966796875,0z M25.4697265625,6.6875q0-0.4189453125,0.190673828125-0.765380859375t0.49951171875-0.555908203125t0.695556640625-0.31689453125q0.28466796875-0.0751953125,0.859375-0.14501953125q1.1708984375-0.1396484375,1.72412109375-0.3330078125q0.00537109375-0.19873046875,0.00537109375-0.25244140625q0-0.5908203125-0.27392578125-0.83251953125q-0.37060546875-0.32763671875-1.10107421875-0.32763671875q-0.68212890625,0-1.007080078125,0.239013671875t-0.480712890625,0.845947265625l-0.9453125-0.12890625q0.12890625-0.60693359375,0.42431640625-0.980224609375t0.85400390625-0.57470703125t1.29443359375-0.201416015625q0.73046875,0,1.18701171875,0.171875t0.67138671875,0.432373046875t0.30078125,0.657958984375q0.04833984375,0.2470703125,0.04833984375,0.8916015625l0,1.2890625q0,1.34814453125,0.061767578125,1.705322265625t0.244384765625,0.684814453125l-1.009765625,0q-0.150390625-0.30078125-0.193359375-0.70361328125q-0.537109375,0.45654296875-1.033935546875,0.64453125t-1.066162109375,0.18798828125q-0.93994140625,0-1.44482421875-0.459228515625t-0.5048828125-1.173583984375z M26.5009765625,6.66064453125q0,0.38671875,0.292724609375,0.64453125t0.856689453125,0.2578125q0.55859375,0,0.99365234375-0.244384765625t0.63916015625-0.668701171875q0.15576171875-0.32763671875,0.15576171875-0.966796875l0-0.3544921875q-0.5263671875,0.21484375-1.5791015625,0.365234375q-0.59619140625,0.0859375-0.84326171875,0.193359375t-0.38134765625,0.314208984375t-0.13427734375,0.459228515625z M31.5283203125,6.48876953125l0.9560546875-0.150390625q0.08056640625,0.57470703125,0.448486328125,0.880859375t1.028564453125,0.30615234375q0.666015625,0,0.98828125-0.271240234375t0.322265625-0.636474609375q0-0.32763671875-0.28466796875-0.515625q-0.19873046875-0.12890625-0.98828125-0.32763671875q-1.0634765625-0.2685546875-1.474365234375-0.464599609375t-0.623046875-0.54248046875t-0.212158203125-0.765380859375q0-0.38134765625,0.174560546875-0.706298828125t0.475341796875-0.539794921875q0.2255859375-0.16650390625,0.614990234375-0.281982421875t0.835205078125-0.115478515625q0.67138671875,0,1.178955078125,0.193359375t0.749267578125,0.523681640625t0.3330078125,0.883544921875l-0.9453125,0.12890625q-0.064453125-0.4404296875-0.373291015625-0.6875t-0.872802734375-0.2470703125q-0.666015625,0-0.95068359375,0.22021484375t-0.28466796875,0.515625q0,0.18798828125,0.1181640625,0.33837890625q0.1181640625,0.15576171875,0.37060546875,0.2578125q0.14501953125,0.0537109375,0.85400390625,0.2470703125q1.02587890625,0.27392578125,1.431396484375,0.448486328125t0.636474609375,0.507568359375t0.23095703125,0.8271484375q0,0.4833984375-0.281982421875,0.910400390625t-0.813720703125,0.66064453125t-1.203125,0.233642578125q-1.11181640625,0-1.694580078125-0.4619140625t-0.743896484375-1.36962890625z M37.60302734375,9.33544921875q0.30615234375-0.13427734375,0.451171875-0.394775390625t0.1611328125-0.749267578125l-0.5478515625,0l0-1.10107421875l1.10107421875,0l0,1.10107421875q0,0.60693359375-0.21484375,0.980224609375t-0.68212890625,0.577392578125z M43.2587890625,6.12890625l1.01513671875-0.0859375q0.11279296875,0.7412109375,0.523681640625,1.114501953125t0.990966796875,0.373291015625q0.6982421875,0,1.181640625-0.5263671875t0.4833984375-1.396484375q0-0.8271484375-0.464599609375-1.30517578125t-1.216552734375-0.47802734375q-0.46728515625,0-0.84326171875,0.212158203125t-0.5908203125,0.550537109375l-0.90771484375-0.1181640625l0.7626953125-4.04443359375l3.91552734375,0l0,0.923828125l-3.14208984375,0l-0.42431640625,2.1162109375q0.708984375-0.494140625,1.48779296875-0.494140625q1.03125,0,1.740234375,0.71435546875t0.708984375,1.8369140625q0,1.06884765625-0.623046875,1.84765625q-0.75732421875,0.9560546875-2.06787109375,0.9560546875q-1.07421875,0-1.753662109375-0.6015625t-0.776123046875-1.59521484375z M48.90380859375,8.19140625l3.02392578125-7.8740234375l1.12255859375,0l3.22265625,7.8740234375l-1.18701171875,0l-0.91845703125-2.384765625l-3.29248046875,0l-0.86474609375,2.384765625l-1.1064453125,0z M51.17578125,4.9580078125l2.66943359375,0l-0.82177734375-2.1806640625q-0.3759765625-0.99365234375-0.55859375-1.6328125q-0.150390625,0.75732421875-0.42431640625,1.50390625z M57.169921875,9.33544921875q0.30615234375-0.13427734375,0.451171875-0.394775390625t0.1611328125-0.749267578125l-0.5478515625,0l0-1.10107421875l1.10107421875,0l0,1.10107421875q0,0.60693359375-0.21484375,0.980224609375t-0.68212890625,0.577392578125z M62.626953125,1.24658203125l0-0.92919921875l6.2412109375,0l0,0.92919921875l-2.60498046875,0l0,6.94482421875l-1.0419921875,0l0-6.94482421875l-2.59423828125,0z M69.4267578125,6.48876953125l0.9560546875-0.150390625q0.08056640625,0.57470703125,0.448486328125,0.880859375t1.028564453125,0.30615234375q0.666015625,0,0.98828125-0.271240234375t0.322265625-0.636474609375q0-0.32763671875-0.28466796875-0.515625q-0.19873046875-0.12890625-0.98828125-0.32763671875q-1.0634765625-0.2685546875-1.474365234375-0.464599609375t-0.623046875-0.54248046875t-0.212158203125-0.765380859375q0-0.38134765625,0.174560546875-0.706298828125t0.475341796875-0.539794921875q0.2255859375-0.16650390625,0.614990234375-0.281982421875t0.835205078125-0.115478515625q0.67138671875,0,1.178955078125,0.193359375t0.749267578125,0.523681640625t0.3330078125,0.883544921875l-0.9453125,0.12890625q-0.064453125-0.4404296875-0.373291015625-0.6875t-0.872802734375-0.2470703125q-0.666015625,0-0.95068359375,0.22021484375t-0.28466796875,0.515625q0,0.18798828125,0.1181640625,0.33837890625q0.1181640625,0.15576171875,0.37060546875,0.2578125q0.14501953125,0.0537109375,0.85400390625,0.2470703125q1.02587890625,0.27392578125,1.431396484375,0.448486328125t0.636474609375,0.507568359375t0.23095703125,0.8271484375q0,0.4833984375-0.281982421875,0.910400390625t-0.813720703125,0.66064453125t-1.203125,0.233642578125q-1.11181640625,0-1.694580078125-0.4619140625t-0.743896484375-1.36962890625z M74.9912109375,5.3876953125q0-1.439453125,0.7412109375-2.234375t1.9228515625-0.794921875q1.14404296875,0,1.869140625,0.77880859375t0.72509765625,2.19140625q0,0.0859375-0.00537109375,0.2578125l-4.25390625,0q0.0537109375,0.93994140625,0.53173828125,1.439453125t1.1923828125,0.49951171875q0.53173828125,0,0.90771484375-0.279296875t0.59619140625-0.8916015625l0.9990234375,0.12353515625q-0.236328125,0.87548828125-0.87548828125,1.35888671875t-1.6328125,0.4833984375q-1.25146484375,0-1.984619140625-0.770751953125t-0.733154296875-2.161865234375z M76.0439453125,4.79150390625l3.18505859375,0q-0.064453125-0.7197265625-0.365234375-1.07958984375q-0.4619140625-0.55859375-1.19775390625-0.55859375q-0.666015625,0-1.119873046875,0.44580078125t-0.502197265625,1.1923828125z M81.42041015625,8.19140625l0-5.7041015625l0.8701171875,0l0,0.86474609375q0.3330078125-0.60693359375,0.614990234375-0.80029296875t0.620361328125-0.193359375q0.48876953125,0,0.99365234375,0.3115234375l-0.3330078125,0.89697265625q-0.3544921875-0.20947265625-0.708984375-0.20947265625q-0.31689453125,0-0.5693359375,0.190673828125t-0.35986328125,0.529052734375q-0.1611328125,0.515625-0.1611328125,1.1279296875l0,2.986328125l-0.966796875,0z M85.099609375,8.19140625l0-5.7041015625l0.966796875,0l0,5.7041015625l-0.966796875,0z M85.099609375,1.42919921875l0-1.11181640625l0.966796875,0l0,1.11181640625l-0.966796875,0z M87.72607421875,9.33544921875q0.30615234375-0.13427734375,0.451171875-0.394775390625t0.1611328125-0.749267578125l-0.5478515625,0l0-1.10107421875l1.10107421875,0l0,1.10107421875q0,0.60693359375-0.21484375,0.980224609375t-0.68212890625,0.577392578125z"/></svg>
