<?xml version="1.0"?>
<svg version="1.1" xmlns="http://www.w3.org/2000/svg" width="107.6044921875px" height="11.19140625px"><path fill="#777" d="M0.3330078125,8.19140625q-0.0107421875-0.34912109375,0.11279296875-0.67138671875q0.19873046875-0.53173828125,0.636474609375-1.04736328125t1.264892578125-1.1923828125q1.28369140625-1.052734375,1.73486328125-1.667724609375t0.451171875-1.162841796875q0-0.57470703125-0.410888671875-0.969482421875t-1.071533203125-0.394775390625q-0.6982421875,0-1.1171875,0.4189453125t-0.42431640625,1.16015625l-0.99365234375-0.10205078125q0.10205078125-1.11181640625,0.76806640625-1.694580078125t1.78857421875-0.582763671875q1.13330078125,0,1.7939453125,0.62841796875t0.66064453125,1.5576171875q0,0.47265625-0.193359375,0.92919921875t-0.641845703125,0.96142578125t-1.490478515625,1.3857421875q-0.8701171875,0.73046875-1.1171875,0.990966796875t-0.408203125,0.523681640625l3.86181640625,0l0,0.92919921875l-5.20458984375,0z M6.25732421875,6.30615234375l0-0.88623046875l3.59326171875-5.1025390625l0.78955078125,0l0,5.1025390625l1.0634765625,0l0,0.88623046875l-1.0634765625,0l0,1.88525390625l-0.966796875,0l0-1.88525390625l-3.416015625,0z M7.2080078125,5.419921875l2.46533203125,0l0-3.55029296875z M12.68115234375,5.9140625q0-0.76806640625,0.389404296875-1.286376953125t1.109130859375-0.706298828125q-0.6015625-0.22021484375-0.8916015625-0.62841796875t-0.2900390625-0.9775390625q0-0.859375,0.61767578125-1.44482421875t1.6435546875-0.58544921875q1.03125,0,1.65966796875,0.598876953125t0.62841796875,1.458251953125q0,0.5478515625-0.287353515625,0.953369140625t-0.872802734375,0.625732421875q0.72509765625,0.236328125,1.103759765625,0.7626953125t0.378662109375,1.2568359375q0,1.009765625-0.71435546875,1.697265625t-1.8798828125,0.6875t-1.8798828125-0.690185546875t-0.71435546875-1.721435546875z M13.6748046875,5.91943359375q0,0.41357421875,0.196044921875,0.80029296875t0.582763671875,0.598876953125t0.83251953125,0.212158203125q0.69287109375,0,1.14404296875-0.44580078125t0.451171875-1.13330078125q0-0.6982421875-0.464599609375-1.15478515625t-1.162841796875-0.45654296875q-0.68212890625,0-1.130615234375,0.451171875t-0.448486328125,1.1279296875z M13.986328125,2.283203125q0,0.55859375,0.35986328125,0.9130859375t0.9345703125,0.3544921875q0.55859375,0,0.915771484375-0.351806640625t0.357177734375-0.862060546875q0-0.53173828125-0.367919921875-0.894287109375t-0.915771484375-0.362548828125q-0.55322265625,0-0.91845703125,0.3544921875t-0.365234375,0.8486328125z M18.8095703125,4.30810546875q0-1.396484375,0.287353515625-2.247802734375t0.85400390625-1.313232421875t1.426025390625-0.4619140625q0.6337890625,0,1.11181640625,0.255126953125t0.78955078125,0.73583984375t0.48876953125,1.1708984375t0.17724609375,1.861083984375q0,1.3857421875-0.28466796875,2.237060546875t-0.851318359375,1.31591796875t-1.431396484375,0.464599609375q-1.138671875,0-1.78857421875-0.81640625q-0.77880859375-0.98291015625-0.77880859375-3.201171875z M19.80322265625,4.30810546875q0,1.93896484375,0.453857421875,2.580810546875t1.119873046875,0.641845703125t1.119873046875-0.64453125t0.453857421875-2.578125q0-1.9443359375-0.453857421875-2.58349609375t-1.130615234375-0.63916015625q-0.666015625,0-1.0634765625,0.56396484375q-0.49951171875,0.7197265625-0.49951171875,2.65869140625z M25.3837890625,9.33544921875q0.30615234375-0.13427734375,0.451171875-0.394775390625t0.1611328125-0.749267578125l-0.5478515625,0l0-1.10107421875l1.10107421875,0l0,1.10107421875q0,0.60693359375-0.21484375,0.980224609375t-0.68212890625,0.577392578125z M31.4208984375,8.19140625l0-7.8740234375l1.06884765625,0l4.1357421875,6.18212890625l0-6.18212890625l0.9990234375,0l0,7.8740234375l-1.06884765625,0l-4.1357421875-6.1875l0,6.1875l-0.9990234375,0z M39.25732421875,8.19140625l0-5.7041015625l0.966796875,0l0,5.7041015625l-0.966796875,0z M39.25732421875,1.42919921875l0-1.11181640625l0.966796875,0l0,1.11181640625l-0.966796875,0z M41.400390625,5.36083984375q0-0.923828125,0.30615234375-1.61669921875t0.931884765625-1.039306640625t1.361572265625-0.346435546875q0.92919921875,0,1.52001953125,0.469970703125t0.75732421875,1.334716796875l-0.93994140625,0.14501953125q-0.13427734375-0.57470703125-0.475341796875-0.86474609375t-0.824462890625-0.2900390625q-0.73046875,0-1.18701171875,0.523681640625t-0.45654296875,1.656982421875q0,1.1494140625,0.4404296875,1.67041015625t1.1494140625,0.52099609375q0.5693359375,0,0.95068359375-0.34912109375t0.4833984375-1.07421875l0.95068359375,0.12353515625q-0.15576171875,0.98291015625-0.797607421875,1.538818359375t-1.576416015625,0.555908203125q-1.1708984375,0-1.882568359375-0.765380859375t-0.711669921875-2.194091796875z M46.8359375,5.33935546875q0-1.58447265625,0.880859375-2.34716796875q0.73583984375-0.6337890625,1.7939453125-0.6337890625q1.17626953125,0,1.9228515625,0.770751953125t0.74658203125,2.129638671875q0,1.10107421875-0.330322265625,1.732177734375t-0.96142578125,0.980224609375t-1.377685546875,0.34912109375q-1.19775390625,0-1.936279296875-0.76806640625t-0.738525390625-2.212890625z M47.82958984375,5.33935546875q0,1.095703125,0.47802734375,1.640869140625t1.203125,0.545166015625q0.7197265625,0,1.19775390625-0.5478515625t0.47802734375-1.67041015625q0-1.05810546875-0.480712890625-1.603271484375t-1.195068359375-0.545166015625q-0.72509765625,0-1.203125,0.54248046875t-0.47802734375,1.63818359375z M52.9267578125,6.48876953125l0.9560546875-0.150390625q0.08056640625,0.57470703125,0.448486328125,0.880859375t1.028564453125,0.30615234375q0.666015625,0,0.98828125-0.271240234375t0.322265625-0.636474609375q0-0.32763671875-0.28466796875-0.515625q-0.19873046875-0.12890625-0.98828125-0.32763671875q-1.0634765625-0.2685546875-1.474365234375-0.464599609375t-0.623046875-0.54248046875t-0.212158203125-0.765380859375q0-0.38134765625,0.174560546875-0.706298828125t0.475341796875-0.539794921875q0.2255859375-0.16650390625,0.614990234375-0.281982421875t0.835205078125-0.115478515625q0.67138671875,0,1.178955078125,0.193359375t0.749267578125,0.523681640625t0.3330078125,0.883544921875l-0.9453125,0.12890625q-0.064453125-0.4404296875-0.373291015625-0.6875t-0.872802734375-0.2470703125q-0.666015625,0-0.95068359375,0.22021484375t-0.28466796875,0.515625q0,0.18798828125,0.1181640625,0.33837890625q0.1181640625,0.15576171875,0.37060546875,0.2578125q0.14501953125,0.0537109375,0.85400390625,0.2470703125q1.02587890625,0.27392578125,1.431396484375,0.448486328125t0.636474609375,0.507568359375t0.23095703125,0.8271484375q0,0.4833984375-0.281982421875,0.910400390625t-0.813720703125,0.66064453125t-1.203125,0.233642578125q-1.11181640625,0-1.694580078125-0.4619140625t-0.743896484375-1.36962890625z M58.81884765625,8.19140625l0-5.7041015625l0.966796875,0l0,5.7041015625l-0.966796875,0z M58.81884765625,1.42919921875l0-1.11181640625l0.966796875,0l0,1.11181640625l-0.966796875,0z M60.9296875,6.6875q0-0.4189453125,0.190673828125-0.765380859375t0.49951171875-0.555908203125t0.695556640625-0.31689453125q0.28466796875-0.0751953125,0.859375-0.14501953125q1.1708984375-0.1396484375,1.72412109375-0.3330078125q0.00537109375-0.19873046875,0.00537109375-0.25244140625q0-0.5908203125-0.27392578125-0.83251953125q-0.37060546875-0.32763671875-1.10107421875-0.32763671875q-0.68212890625,0-1.007080078125,0.239013671875t-0.480712890625,0.845947265625l-0.9453125-0.12890625q0.12890625-0.60693359375,0.42431640625-0.980224609375t0.85400390625-0.57470703125t1.29443359375-0.201416015625q0.73046875,0,1.18701171875,0.171875t0.67138671875,0.432373046875t0.30078125,0.657958984375q0.04833984375,0.2470703125,0.04833984375,0.8916015625l0,1.2890625q0,1.34814453125,0.061767578125,1.705322265625t0.244384765625,0.684814453125l-1.009765625,0q-0.150390625-0.30078125-0.193359375-0.70361328125q-0.537109375,0.45654296875-1.033935546875,0.64453125t-1.066162109375,0.18798828125q-0.93994140625,0-1.44482421875-0.459228515625t-0.5048828125-1.173583984375z M61.9609375,6.66064453125q0,0.38671875,0.292724609375,0.64453125t0.856689453125,0.2578125q0.55859375,0,0.99365234375-0.244384765625t0.63916015625-0.668701171875q0.15576171875-0.32763671875,0.15576171875-0.966796875l0-0.3544921875q-0.5263671875,0.21484375-1.5791015625,0.365234375q-0.59619140625,0.0859375-0.84326171875,0.193359375t-0.38134765625,0.314208984375t-0.13427734375,0.459228515625z M67.56298828125,9.33544921875q0.30615234375-0.13427734375,0.451171875-0.394775390625t0.1611328125-0.749267578125l-0.5478515625,0l0-1.10107421875l1.10107421875,0l0,1.10107421875q0,0.60693359375-0.21484375,0.980224609375t-0.68212890625,0.577392578125z M73.31005859375,4.1953125q0-1.22998046875,0.469970703125-2.145751953125t1.33740234375-1.39111328125t1.909423828125-0.475341796875q1.181640625,0,1.9873046875,0.6015625t1.12255859375,1.69189453125l-1.02587890625,0.24169921875q-0.27392578125-0.859375-0.794921875-1.25146484375t-1.310546875-0.39208984375q-0.90771484375,0-1.517333984375,0.43505859375t-0.856689453125,1.168212890625t-0.2470703125,1.511962890625q0,1.00439453125,0.292724609375,1.753662109375t0.910400390625,1.119873046875t1.33740234375,0.37060546875q0.87548828125,0,1.482421875-0.5048828125t0.82177734375-1.49853515625l1.0419921875,0.26318359375q-0.32763671875,1.28369140625-1.178955078125,1.957763671875t-2.081298828125,0.674072265625q-1.27294921875,0-2.070556640625-0.518310546875t-1.2138671875-1.501220703125t-0.416259765625-2.11083984375z M80.88330078125,2.4873046875l1.0419921875,0l1.18701171875,3.30322265625q0.23095703125,0.62841796875,0.41357421875,1.3212890625q0.16650390625-0.666015625,0.3974609375-1.2998046875l1.21923828125-3.32470703125l0.966796875,0l-2.169921875,5.80078125q-0.34912109375,0.93994140625-0.54248046875,1.29443359375q-0.2578125,0.47802734375-0.5908203125,0.700927734375t-0.794921875,0.222900390625q-0.279296875,0-0.623046875-0.1181640625l-0.107421875-0.90771484375q0.31689453125,0.0859375,0.55322265625,0.0859375q0.322265625,0,0.515625-0.107421875t0.31689453125-0.30078125q0.09130859375-0.14501953125,0.29541015625-0.7197265625q0.02685546875-0.08056640625,0.0859375-0.236328125z M86.93115234375,10.37744140625l0-7.89013671875l0.880859375,0l0,0.7412109375q0.3115234375-0.43505859375,0.70361328125-0.652587890625t0.95068359375-0.217529296875q0.73046875,0,1.2890625,0.3759765625t0.84326171875,1.060791015625t0.28466796875,1.501220703125q0,0.87548828125-0.314208984375,1.576416015625t-0.9130859375,1.07421875t-1.259521484375,0.373291015625q-0.4833984375,0-0.867431640625-0.2041015625t-0.631103515625-0.515625l0,2.77685546875l-0.966796875,0z M87.806640625,5.37158203125q0,1.10107421875,0.44580078125,1.62744140625t1.07958984375,0.5263671875q0.64453125,0,1.103759765625-0.545166015625t0.459228515625-1.689208984375q0-1.09033203125-0.448486328125-1.6328125t-1.071533203125-0.54248046875q-0.61767578125,0-1.093017578125,0.577392578125t-0.475341796875,1.678466796875z M93.0380859375,8.19140625l0-5.7041015625l0.8701171875,0l0,0.86474609375q0.3330078125-0.60693359375,0.614990234375-0.80029296875t0.620361328125-0.193359375q0.48876953125,0,0.99365234375,0.3115234375l-0.3330078125,0.89697265625q-0.3544921875-0.20947265625-0.708984375-0.20947265625q-0.31689453125,0-0.5693359375,0.190673828125t-0.35986328125,0.529052734375q-0.1611328125,0.515625-0.1611328125,1.1279296875l0,2.986328125l-0.966796875,0z M96.6904296875,6.021484375l0-3.5341796875l0.966796875,0l0,3.16357421875q0,0.75732421875,0.05908203125,1.0205078125q0.09130859375,0.38134765625,0.38671875,0.598876953125t0.73046875,0.217529296875t0.81640625-0.222900390625t0.539794921875-0.60693359375t0.158447265625-1.114501953125l0-3.05615234375l0.966796875,0l0,5.7041015625l-0.86474609375,0l0-0.837890625q-0.666015625,0.966796875-1.81005859375,0.966796875q-0.5048828125,0-0.942626953125-0.193359375t-0.64990234375-0.486083984375t-0.298095703125-0.717041015625q-0.05908203125-0.28466796875-0.05908203125-0.90234375z M102.44287109375,6.48876953125l0.9560546875-0.150390625q0.08056640625,0.57470703125,0.448486328125,0.880859375t1.028564453125,0.30615234375q0.666015625,0,0.98828125-0.271240234375t0.322265625-0.636474609375q0-0.32763671875-0.28466796875-0.515625q-0.19873046875-0.12890625-0.98828125-0.32763671875q-1.0634765625-0.2685546875-1.474365234375-0.464599609375t-0.623046875-0.54248046875t-0.212158203125-0.765380859375q0-0.38134765625,0.174560546875-0.706298828125t0.475341796875-0.539794921875q0.2255859375-0.16650390625,0.614990234375-0.281982421875t0.835205078125-0.115478515625q0.67138671875,0,1.178955078125,0.193359375t0.749267578125,0.523681640625t0.3330078125,0.883544921875l-0.9453125,0.12890625q-0.064453125-0.4404296875-0.373291015625-0.6875t-0.872802734375-0.2470703125q-0.666015625,0-0.95068359375,0.22021484375t-0.28466796875,0.515625q0,0.18798828125,0.1181640625,0.33837890625q0.1181640625,0.15576171875,0.37060546875,0.2578125q0.14501953125,0.0537109375,0.85400390625,0.2470703125q1.02587890625,0.27392578125,1.431396484375,0.448486328125t0.636474609375,0.507568359375t0.23095703125,0.8271484375q0,0.4833984375-0.281982421875,0.910400390625t-0.813720703125,0.66064453125t-1.203125,0.233642578125q-1.11181640625,0-1.694580078125-0.4619140625t-0.743896484375-1.36962890625z"/></svg>
