<?xml version="1.0"?>
<svg version="1.1" xmlns="http://www.w3.org/2000/svg" width="231.04614257812px" height="10.591796875px"><path fill="#777" d="M0.81005859375,7.991796875l0-7.51611328125l2.835205078125,0q0.74853515625,0,1.143310546875,0.07177734375q0.5537109375,0.09228515625,0.927978515625,0.3511962890625t0.6024169921875,0.7254638671875t0.2281494140625,1.025390625q0,0.958740234375-0.610107421875,1.6226806640625t-2.20458984375,0.6639404296875l-1.927734375,0l0,3.0556640625l-0.99462890625,0z M1.8046875,4.049169921875l1.943115234375,0q0.9638671875,0,1.368896484375-0.35888671875t0.405029296875-1.010009765625q0-0.4716796875-0.2384033203125-0.8074951171875t-0.6280517578125-0.4434814453125q-0.251220703125-0.066650390625-0.927978515625-0.066650390625l-1.922607421875,0l0,2.6865234375z M7.828857421875,7.991796875l0-7.51611328125l3.33251953125,0q1.0048828125,0,1.52783203125,0.2025146484375t0.835693359375,0.7152099609375t0.312744140625,1.133056640625q0,0.7998046875-0.517822265625,1.348388671875t-1.599609375,0.697265625q0.394775390625,0.189697265625,0.599853515625,0.374267578125q0.435791015625,0.39990234375,0.825439453125,0.999755859375l1.307373046875,2.045654296875l-1.2509765625,0l-0.99462890625-1.563720703125q-0.435791015625-0.6767578125-0.7177734375-1.03564453125t-0.5050048828125-0.50244140625t-0.4537353515625-0.199951171875q-0.169189453125-0.035888671875-0.5537109375-0.035888671875l-1.153564453125,0l0,3.337646484375l-0.99462890625,0z M8.823486328125,3.792822265625l2.137939453125,0q0.681884765625,0,1.06640625-0.1409912109375t0.58447265625-0.451171875t0.199951171875-0.6741943359375q0-0.533203125-0.3870849609375-0.876708984375t-1.2227783203125-0.343505859375l-2.37890625,0l0,2.486572265625z M15.09375,4.33115234375q0-1.871337890625,1.0048828125-2.9300537109375t2.59423828125-1.0587158203125q1.040771484375,0,1.87646484375,0.497314453125t1.2740478515625,1.3868408203125t0.4383544921875,2.0174560546875q0,1.143310546875-0.46142578125,2.045654296875t-1.307373046875,1.3663330078125t-1.8251953125,0.4639892578125q-1.061279296875,0-1.89697265625-0.5126953125t-1.266357421875-1.399658203125t-0.4306640625-1.87646484375z M16.119140625,4.346533203125q0,1.358642578125,0.7305908203125,2.1405029296875t1.8328857421875,0.7818603515625q1.122802734375,0,1.8482666015625-0.78955078125t0.7254638671875-2.240478515625q0-0.917724609375-0.3101806640625-1.6021728515625t-0.907470703125-1.061279296875t-1.3406982421875-0.3768310546875q-1.05615234375,0-1.8175048828125,0.7254638671875t-0.7613525390625,2.4224853515625z M24.8759765625,7.991796875l-1.994384765625-7.51611328125l1.020263671875,0l1.143310546875,4.927001953125q0.1845703125,0.774169921875,0.31787109375,1.5380859375q0.287109375-1.204833984375,0.33837890625-1.389404296875l1.430419921875-5.07568359375l1.19970703125,0l1.07666015625,3.80419921875q0.405029296875,1.4150390625,0.58447265625,2.660888671875q0.1435546875-0.712646484375,0.374267578125-1.635498046875l1.17919921875-4.82958984375l0.999755859375,0l-2.06103515625,7.51611328125l-0.958740234375,0l-1.584228515625-5.726806640625q-0.199951171875-0.7177734375-0.23583984375-0.8818359375q-0.117919921875,0.517822265625-0.220458984375,0.8818359375l-1.594482421875,5.726806640625l-1.01513671875,0z M33.494384765625,7.991796875l0-7.51611328125l5.4345703125,0l0,0.886962890625l-4.43994140625,0l0,2.302001953125l4.157958984375,0l0,0.8818359375l-4.157958984375,0l0,2.558349609375l4.6142578125,0l0,0.886962890625l-5.60888671875,0z M40.436279296875,7.991796875l0-7.51611328125l2.81982421875,0q0.861328125,0,1.3817138671875,0.2281494140625t0.815185546875,0.702392578125t0.2947998046875,0.9920654296875q0,0.48193359375-0.261474609375,0.907470703125t-0.78955078125,0.68701171875q0.681884765625,0.199951171875,1.0484619140625,0.681884765625t0.3665771484375,1.13818359375q0,0.528076171875-0.2230224609375,0.9818115234375t-0.5511474609375,0.6998291015625t-0.8228759765625,0.3717041015625t-1.2125244140625,0.1256103515625l-2.865966796875,0z M41.430908203125,3.63388671875l1.625244140625,0q0.661376953125,0,0.948486328125-0.087158203125q0.37939453125-0.11279296875,0.5716552734375-0.374267578125t0.1922607421875-0.65625q0-0.374267578125-0.179443359375-0.6588134765625t-0.5126953125-0.3896484375t-1.143310546875-0.1051025390625l-1.502197265625,0l0,2.271240234375z M41.430908203125,7.104833984375l1.871337890625,0q0.48193359375,0,0.6767578125-0.035888671875q0.343505859375-0.0615234375,0.57421875-0.205078125t0.37939453125-0.4178466796875t0.148681640625-0.6331787109375q0-0.42041015625-0.21533203125-0.7305908203125t-0.5972900390625-0.435791015625t-1.0997314453125-0.1256103515625l-1.738037109375,0l0,2.583984375z M50.39794921875,7.991796875l0-7.51611328125l2.835205078125,0q0.74853515625,0,1.143310546875,0.07177734375q0.5537109375,0.09228515625,0.927978515625,0.3511962890625t0.6024169921875,0.7254638671875t0.2281494140625,1.025390625q0,0.958740234375-0.610107421875,1.6226806640625t-2.20458984375,0.6639404296875l-1.927734375,0l0,3.0556640625l-0.99462890625,0z M51.392578125,4.049169921875l1.943115234375,0q0.9638671875,0,1.368896484375-0.35888671875t0.405029296875-1.010009765625q0-0.4716796875-0.2384033203125-0.8074951171875t-0.6280517578125-0.4434814453125q-0.251220703125-0.066650390625-0.927978515625-0.066650390625l-1.922607421875,0l0,2.6865234375z M57.416748046875,7.991796875l0-7.51611328125l3.33251953125,0q1.0048828125,0,1.52783203125,0.2025146484375t0.835693359375,0.7152099609375t0.312744140625,1.133056640625q0,0.7998046875-0.517822265625,1.348388671875t-1.599609375,0.697265625q0.394775390625,0.189697265625,0.599853515625,0.374267578125q0.435791015625,0.39990234375,0.825439453125,0.999755859375l1.307373046875,2.045654296875l-1.2509765625,0l-0.99462890625-1.563720703125q-0.435791015625-0.6767578125-0.7177734375-1.03564453125t-0.5050048828125-0.50244140625t-0.4537353515625-0.199951171875q-0.169189453125-0.035888671875-0.5537109375-0.035888671875l-1.153564453125,0l0,3.337646484375l-0.99462890625,0z M58.411376953125,3.792822265625l2.137939453125,0q0.681884765625,0,1.06640625-0.1409912109375t0.58447265625-0.451171875t0.199951171875-0.6741943359375q0-0.533203125-0.3870849609375-0.876708984375t-1.2227783203125-0.343505859375l-2.37890625,0l0,2.486572265625z M64.681640625,4.33115234375q0-1.871337890625,1.0048828125-2.9300537109375t2.59423828125-1.0587158203125q1.040771484375,0,1.87646484375,0.497314453125t1.2740478515625,1.3868408203125t0.4383544921875,2.0174560546875q0,1.143310546875-0.46142578125,2.045654296875t-1.307373046875,1.3663330078125t-1.8251953125,0.4639892578125q-1.061279296875,0-1.89697265625-0.5126953125t-1.266357421875-1.399658203125t-0.4306640625-1.87646484375z M65.70703125,4.346533203125q0,1.358642578125,0.7305908203125,2.1405029296875t1.8328857421875,0.7818603515625q1.122802734375,0,1.8482666015625-0.78955078125t0.7254638671875-2.240478515625q0-0.917724609375-0.3101806640625-1.6021728515625t-0.907470703125-1.061279296875t-1.3406982421875-0.3768310546875q-1.05615234375,0-1.8175048828125,0.7254638671875t-0.7613525390625,2.4224853515625z M76.66845703125,5.043798828125l0-0.8818359375l3.183837890625-0.005126953125l0,2.7890625q-0.733154296875,0.58447265625-1.512451171875,0.8792724609375t-1.599609375,0.2947998046875q-1.107421875,0-2.0123291015625-0.4742431640625t-1.3663330078125-1.3714599609375t-0.46142578125-2.004638671875q0-1.09716796875,0.4588623046875-2.0482177734375t1.3201904296875-1.4124755859375t1.984130859375-0.46142578125q0.815185546875,0,1.4739990234375,0.2640380859375t1.0330810546875,0.7357177734375t0.569091796875,1.23046875l-0.897216796875,0.24609375q-0.169189453125-0.57421875-0.42041015625-0.90234375t-0.7177734375-0.5255126953125t-1.03564453125-0.1973876953125q-0.681884765625,0-1.17919921875,0.2076416015625t-0.8023681640625,0.5460205078125t-0.4742431640625,0.743408203125q-0.287109375,0.697265625-0.287109375,1.512451171875q0,1.0048828125,0.3460693359375,1.681640625t1.0074462890625,1.0048828125t1.40478515625,0.328125q0.64599609375,0,1.26123046875-0.2486572265625t0.93310546875-0.5306396484375l0-1.399658203125l-2.209716796875,0z M81.333984375,7.991796875l0-7.51611328125l3.33251953125,0q1.0048828125,0,1.52783203125,0.2025146484375t0.835693359375,0.7152099609375t0.312744140625,1.133056640625q0,0.7998046875-0.517822265625,1.348388671875t-1.599609375,0.697265625q0.394775390625,0.189697265625,0.599853515625,0.374267578125q0.435791015625,0.39990234375,0.825439453125,0.999755859375l1.307373046875,2.045654296875l-1.2509765625,0l-0.99462890625-1.563720703125q-0.435791015625-0.6767578125-0.7177734375-1.03564453125t-0.5050048828125-0.50244140625t-0.4537353515625-0.199951171875q-0.169189453125-0.035888671875-0.5537109375-0.035888671875l-1.153564453125,0l0,3.337646484375l-0.99462890625,0z M82.32861328125,3.792822265625l2.137939453125,0q0.681884765625,0,1.06640625-0.1409912109375t0.58447265625-0.451171875t0.199951171875-0.6741943359375q0-0.533203125-0.3870849609375-0.876708984375t-1.2227783203125-0.343505859375l-2.37890625,0l0,2.486572265625z M88.921875,7.991796875l0-7.51611328125l5.4345703125,0l0,0.886962890625l-4.43994140625,0l0,2.302001953125l4.157958984375,0l0,0.8818359375l-4.157958984375,0l0,2.558349609375l4.6142578125,0l0,0.886962890625l-5.60888671875,0z M95.56640625,5.577001953125l0.938232421875-0.08203125q0.066650390625,0.56396484375,0.3101806640625,0.9254150390625t0.7562255859375,0.58447265625t1.153564453125,0.2230224609375q0.569091796875,0,1.0048828125-0.169189453125t0.6485595703125-0.4639892578125t0.2127685546875-0.6434326171875q0-0.353759765625-0.205078125-0.6177978515625t-0.6767578125-0.4434814453125q-0.302490234375-0.117919921875-1.338134765625-0.3665771484375t-1.450927734375-0.4691162109375q-0.538330078125-0.281982421875-0.8023681640625-0.6998291015625t-0.2640380859375-0.9356689453125q0-0.569091796875,0.322998046875-1.0638427734375t0.943359375-0.7510986328125t1.379150390625-0.25634765625q0.835693359375,0,1.4739990234375,0.2691650390625t0.9818115234375,0.7921142578125t0.369140625,1.184326171875l-0.95361328125,0.07177734375q-0.076904296875-0.712646484375-0.5203857421875-1.07666015625t-1.3099365234375-0.364013671875q-0.90234375,0-1.3150634765625,0.3306884765625t-0.4127197265625,0.7972412109375q0,0.405029296875,0.292236328125,0.66650390625q0.287109375,0.261474609375,1.4996337890625,0.5357666015625t1.6636962890625,0.4793701171875q0.65625,0.302490234375,0.968994140625,0.7664794921875t0.312744140625,1.0689697265625q0,0.599853515625-0.343505859375,1.1304931640625t-0.9869384765625,0.825439453125t-1.4483642578125,0.2947998046875q-1.020263671875,0-1.7098388671875-0.29736328125t-1.081787109375-0.8946533203125t-0.4127197265625-1.3509521484375z M102.56982421875,5.577001953125l0.938232421875-0.08203125q0.066650390625,0.56396484375,0.3101806640625,0.9254150390625t0.7562255859375,0.58447265625t1.153564453125,0.2230224609375q0.569091796875,0,1.0048828125-0.169189453125t0.6485595703125-0.4639892578125t0.2127685546875-0.6434326171875q0-0.353759765625-0.205078125-0.6177978515625t-0.6767578125-0.4434814453125q-0.302490234375-0.117919921875-1.338134765625-0.3665771484375t-1.450927734375-0.4691162109375q-0.538330078125-0.281982421875-0.8023681640625-0.6998291015625t-0.2640380859375-0.9356689453125q0-0.569091796875,0.322998046875-1.0638427734375t0.943359375-0.7510986328125t1.379150390625-0.25634765625q0.835693359375,0,1.4739990234375,0.2691650390625t0.9818115234375,0.7921142578125t0.369140625,1.184326171875l-0.95361328125,0.07177734375q-0.076904296875-0.712646484375-0.5203857421875-1.07666015625t-1.3099365234375-0.364013671875q-0.90234375,0-1.3150634765625,0.3306884765625t-0.4127197265625,0.7972412109375q0,0.405029296875,0.292236328125,0.66650390625q0.287109375,0.261474609375,1.4996337890625,0.5357666015625t1.6636962890625,0.4793701171875q0.65625,0.302490234375,0.968994140625,0.7664794921875t0.312744140625,1.0689697265625q0,0.599853515625-0.343505859375,1.1304931640625t-0.9869384765625,0.825439453125t-1.4483642578125,0.2947998046875q-1.020263671875,0-1.7098388671875-0.29736328125t-1.081787109375-0.8946533203125t-0.4127197265625-1.3509521484375z M110.08081054688,7.991796875l0-7.51611328125l0.99462890625,0l0,7.51611328125l-0.99462890625,0z M114.97705078125,7.991796875l-2.912109375-7.51611328125l1.07666015625,0l1.953369140625,5.460205078125q0.23583984375,0.65625,0.394775390625,1.23046875q0.17431640625-0.615234375,0.405029296875-1.23046875l2.0302734375-5.460205078125l1.01513671875,0l-2.94287109375,7.51611328125l-1.020263671875,0z M119.85278320312,7.991796875l0-7.51611328125l5.4345703125,0l0,0.886962890625l-4.43994140625,0l0,2.302001953125l4.157958984375,0l0,0.8818359375l-4.157958984375,0l0,2.558349609375l4.6142578125,0l0,0.886962890625l-5.60888671875,0z M129.7529296875,7.991796875l0-7.51611328125l2.589111328125,0q0.876708984375,0,1.338134765625,0.107666015625q0.64599609375,0.148681640625,1.102294921875,0.538330078125q0.5947265625,0.50244140625,0.8895263671875,1.2843017578125t0.2947998046875,1.7867431640625q0,0.856201171875-0.199951171875,1.517578125t-0.5126953125,1.0946044921875t-0.6844482421875,0.681884765625t-0.897216796875,0.3768310546875t-1.2073974609375,0.128173828125l-2.712158203125,0z M130.74755859375,7.104833984375l1.604736328125,0q0.743408203125,0,1.1663818359375-0.138427734375t0.6741943359375-0.3896484375q0.353759765625-0.353759765625,0.5511474609375-0.9510498046875t0.1973876953125-1.4483642578125q0-1.17919921875-0.3870849609375-1.8123779296875t-0.9407958984375-0.8485107421875q-0.39990234375-0.15380859375-1.286865234375-0.15380859375l-1.5791015625,0l0,5.7421875z M137.35620117188,7.991796875l0-7.51611328125l5.4345703125,0l0,0.886962890625l-4.43994140625,0l0,2.302001953125l4.157958984375,0l0,0.8818359375l-4.157958984375,0l0,2.558349609375l4.6142578125,0l0,0.886962890625l-5.60888671875,0z M146.4873046875,7.991796875l-2.912109375-7.51611328125l1.07666015625,0l1.953369140625,5.460205078125q0.23583984375,0.65625,0.394775390625,1.23046875q0.17431640625-0.615234375,0.405029296875-1.23046875l2.0302734375-5.460205078125l1.01513671875,0l-2.94287109375,7.51611328125l-1.020263671875,0z M151.36303710938,7.991796875l0-7.51611328125l5.4345703125,0l0,0.886962890625l-4.43994140625,0l0,2.302001953125l4.157958984375,0l0,0.8818359375l-4.157958984375,0l0,2.558349609375l4.6142578125,0l0,0.886962890625l-5.60888671875,0z M158.30493164062,7.991796875l0-7.51611328125l0.99462890625,0l0,6.629150390625l3.70166015625,0l0,0.886962890625l-4.6962890625,0z M163.88305664062,4.33115234375q0-1.871337890625,1.0048828125-2.9300537109375t2.59423828125-1.0587158203125q1.040771484375,0,1.87646484375,0.497314453125t1.2740478515625,1.3868408203125t0.4383544921875,2.0174560546875q0,1.143310546875-0.46142578125,2.045654296875t-1.307373046875,1.3663330078125t-1.8251953125,0.4639892578125q-1.061279296875,0-1.89697265625-0.5126953125t-1.266357421875-1.399658203125t-0.4306640625-1.87646484375z M164.90844726562,4.346533203125q0,1.358642578125,0.7305908203125,2.1405029296875t1.8328857421875,0.7818603515625q1.122802734375,0,1.8482666015625-0.78955078125t0.7254638671875-2.240478515625q0-0.917724609375-0.3101806640625-1.6021728515625t-0.907470703125-1.061279296875t-1.3406982421875-0.3768310546875q-1.05615234375,0-1.8175048828125,0.7254638671875t-0.7613525390625,2.4224853515625z M172.35278320312,7.991796875l0-7.51611328125l2.835205078125,0q0.74853515625,0,1.143310546875,0.07177734375q0.5537109375,0.09228515625,0.927978515625,0.3511962890625t0.6024169921875,0.7254638671875t0.2281494140625,1.025390625q0,0.958740234375-0.610107421875,1.6226806640625t-2.20458984375,0.6639404296875l-1.927734375,0l0,3.0556640625l-0.99462890625,0z M173.34741210938,4.049169921875l1.943115234375,0q0.9638671875,0,1.368896484375-0.35888671875t0.405029296875-1.010009765625q0-0.4716796875-0.2384033203125-0.8074951171875t-0.6280517578125-0.4434814453125q-0.251220703125-0.066650390625-0.927978515625-0.066650390625l-1.922607421875,0l0,2.6865234375z M179.32543945312,7.991796875l0-7.51611328125l1.4970703125,0l1.779052734375,5.32177734375q0.24609375,0.743408203125,0.35888671875,1.112548828125q0.128173828125-0.41015625,0.39990234375-1.204833984375l1.799560546875-5.2294921875l1.338134765625,0l0,7.51611328125l-0.958740234375,0l0-6.290771484375l-2.18408203125,6.290771484375l-0.897216796875,0l-2.173828125-6.3984375l0,6.3984375l-0.958740234375,0z M188.12329101562,7.991796875l0-7.51611328125l5.4345703125,0l0,0.886962890625l-4.43994140625,0l0,2.302001953125l4.157958984375,0l0,0.8818359375l-4.157958984375,0l0,2.558349609375l4.6142578125,0l0,0.886962890625l-5.60888671875,0z M195.09594726562,7.991796875l0-7.51611328125l1.020263671875,0l3.94775390625,5.901123046875l0-5.901123046875l0.95361328125,0l0,7.51611328125l-1.020263671875,0l-3.94775390625-5.90625l0,5.90625l-0.95361328125,0z M204.60131835938,7.991796875l0-6.629150390625l-2.476318359375,0l0-0.886962890625l5.95751953125,0l0,0.886962890625l-2.486572265625,0l0,6.629150390625l-0.99462890625,0z M211.97900390625,7.991796875l0-7.51611328125l0.99462890625,0l0,6.629150390625l3.70166015625,0l0,0.886962890625l-4.6962890625,0z M219.77197265625,7.991796875l0-6.629150390625l-2.476318359375,0l0-0.886962890625l5.95751953125,0l0,0.886962890625l-2.486572265625,0l0,6.629150390625l-0.99462890625,0z M224.2734375,7.991796875l0-7.51611328125l2.589111328125,0q0.876708984375,0,1.338134765625,0.107666015625q0.64599609375,0.148681640625,1.102294921875,0.538330078125q0.5947265625,0.50244140625,0.8895263671875,1.2843017578125t0.2947998046875,1.7867431640625q0,0.856201171875-0.199951171875,1.517578125t-0.5126953125,1.0946044921875t-0.6844482421875,0.681884765625t-0.897216796875,0.3768310546875t-1.2073974609375,0.128173828125l-2.712158203125,0z M225.26806640625,7.104833984375l1.604736328125,0q0.743408203125,0,1.1663818359375-0.138427734375t0.6741943359375-0.3896484375q0.353759765625-0.353759765625,0.5511474609375-0.9510498046875t0.1973876953125-1.4483642578125q0-1.17919921875-0.3870849609375-1.8123779296875t-0.9407958984375-0.8485107421875q-0.39990234375-0.15380859375-1.286865234375-0.15380859375l-1.5791015625,0l0,5.7421875z"/></svg>
